<svg width="1435" height="44" viewBox="0 0 1435 44" fill="none" xmlns="http://www.w3.org/2000/svg">
<path d="M1435 14.4118V14.508C1315.5 14.7944 1195.99 14.8738 1076.5 14.9725C957.004 15.0471 837.495 14.9508 717.999 14.9099L0.998657 14.6428V14.5465L717.999 14.1422C837.495 14.0797 957.004 13.9617 1076.5 14.0123C1195.99 14.0893 1315.5 14.147 1435 14.4093V14.4118Z" fill="white"/>
<path d="M1435 0.411755V0.508015C1315.5 0.794393 1195.99 0.87381 1076.5 0.972478C957.004 1.04708 837.495 0.950817 717.999 0.909906L0.998657 0.64278V0.54652L717.999 0.14222C837.495 0.0796503 957.004 -0.0382684 1076.5 0.0122688C1195.99 0.089278 1315.5 0.147033 1435 0.409346V0.411755Z" fill="white"/>
<path d="M1435 28.4118V28.508C1315.5 28.7944 1195.99 28.8738 1076.5 28.9725C957.004 29.0471 837.495 28.9508 717.999 28.9099L0.998657 28.6428V28.5465L717.999 28.1422C837.495 28.0797 957.004 27.9617 1076.5 28.0123C1195.99 28.0893 1315.5 28.147 1435 28.4093V28.4118Z" fill="white"/>
<path d="M1434 43.4118V43.508C1314.51 43.7944 1195 43.8738 1075.5 43.9725C956.006 44.0471 836.496 43.9508 717.001 43.9099L0.00012207 43.6428V43.5465L717.001 43.1422C836.496 43.0797 956.006 42.9617 1075.5 43.0123C1195 43.0893 1314.51 43.147 1434 43.4093V43.4118Z" fill="white"/>
</svg>
